<mxfile host="app.diagrams.net" agent="Mozilla/5.0 (Windows NT 10.0; Win64; x64) AppleWebKit/537.36 (KHTML, like Gecko) Chrome/131.0.0.0 Safari/537.36" version="26.0.5">
  <diagram name="Pagina-1" id="ug0gWHaAXDHAtzjy_xjR">
    <mxGraphModel dx="2206" dy="31" grid="1" gridSize="10" guides="1" tooltips="1" connect="1" arrows="1" fold="1" page="1" pageScale="1" pageWidth="827" pageHeight="1169" math="0" shadow="0">
      <root>
        <mxCell id="0" />
        <mxCell id="1" parent="0" />
        <mxCell id="Xeb5spsY4oEFiOL5pdmb-3" value="" style="rounded=1;whiteSpace=wrap;html=1;strokeWidth=2;strokeColor=none;absoluteArcSize=1;arcSize=0;" vertex="1" parent="1">
          <mxGeometry x="140" y="2170" width="990" height="450" as="geometry" />
        </mxCell>
        <mxCell id="Xeb5spsY4oEFiOL5pdmb-6" value="&lt;font style=&quot;font-size: 16px;&quot;&gt;5ebf39d&lt;/font&gt;" style="ellipse;whiteSpace=wrap;html=1;aspect=fixed;strokeWidth=2;fillColor=#dae8fc;strokeColor=#6c8ebf;" vertex="1" parent="1">
          <mxGeometry x="525.25" y="2305" width="80" height="80" as="geometry" />
        </mxCell>
        <mxCell id="Xeb5spsY4oEFiOL5pdmb-7" value="&lt;font style=&quot;font-size: 16px;&quot;&gt;&quot;first commit&quot;&lt;/font&gt;" style="text;html=1;align=center;verticalAlign=middle;whiteSpace=wrap;rounded=0;" vertex="1" parent="1">
          <mxGeometry x="510" y="2275" width="110.5" height="30" as="geometry" />
        </mxCell>
        <mxCell id="Xeb5spsY4oEFiOL5pdmb-8" style="edgeStyle=orthogonalEdgeStyle;rounded=0;orthogonalLoop=1;jettySize=auto;html=1;endArrow=none;endFill=0;startArrow=classic;startFill=1;strokeWidth=2;" edge="1" parent="1">
          <mxGeometry relative="1" as="geometry">
            <mxPoint x="722" y="2495" as="targetPoint" />
            <mxPoint x="722" y="2455" as="sourcePoint" />
          </mxGeometry>
        </mxCell>
        <mxCell id="Xeb5spsY4oEFiOL5pdmb-9" value="&lt;font style=&quot;font-size: 16px;&quot;&gt;HEAD&lt;/font&gt;" style="text;html=1;align=center;verticalAlign=middle;whiteSpace=wrap;rounded=0;fillColor=#f8cecc;strokeColor=#b85450;" vertex="1" parent="1">
          <mxGeometry x="692.5" y="2485" width="60" height="30" as="geometry" />
        </mxCell>
        <mxCell id="Xeb5spsY4oEFiOL5pdmb-10" value="&lt;font style=&quot;font-size: 16px;&quot;&gt;master&lt;/font&gt;" style="text;html=1;align=center;verticalAlign=middle;whiteSpace=wrap;rounded=0;fillColor=#dae8fc;strokeColor=#6c8ebf;" vertex="1" parent="1">
          <mxGeometry x="692.5" y="2425" width="60" height="30" as="geometry" />
        </mxCell>
        <mxCell id="Xeb5spsY4oEFiOL5pdmb-11" value="" style="endArrow=classic;html=1;rounded=0;entryX=0.5;entryY=1;entryDx=0;entryDy=0;exitX=0.5;exitY=0;exitDx=0;exitDy=0;strokeWidth=2;" edge="1" parent="1" source="Xeb5spsY4oEFiOL5pdmb-10">
          <mxGeometry width="50" height="50" relative="1" as="geometry">
            <mxPoint x="662.5" y="2455" as="sourcePoint" />
            <mxPoint x="722.5" y="2385" as="targetPoint" />
          </mxGeometry>
        </mxCell>
        <mxCell id="Xeb5spsY4oEFiOL5pdmb-12" style="edgeStyle=orthogonalEdgeStyle;rounded=0;orthogonalLoop=1;jettySize=auto;html=1;entryX=1;entryY=0.5;entryDx=0;entryDy=0;strokeWidth=2;" edge="1" parent="1" source="Xeb5spsY4oEFiOL5pdmb-13" target="Xeb5spsY4oEFiOL5pdmb-6">
          <mxGeometry relative="1" as="geometry" />
        </mxCell>
        <mxCell id="Xeb5spsY4oEFiOL5pdmb-13" value="&lt;font style=&quot;font-size: 16px;&quot;&gt;b9b394f&lt;/font&gt;" style="ellipse;whiteSpace=wrap;html=1;aspect=fixed;strokeWidth=2;fillColor=#dae8fc;strokeColor=#6c8ebf;" vertex="1" parent="1">
          <mxGeometry x="682.5" y="2305" width="80" height="80" as="geometry" />
        </mxCell>
        <mxCell id="Xeb5spsY4oEFiOL5pdmb-14" value="&lt;font style=&quot;font-size: 16px;&quot;&gt;&quot;second commit&quot;&lt;/font&gt;" style="text;html=1;align=center;verticalAlign=middle;whiteSpace=wrap;rounded=0;" vertex="1" parent="1">
          <mxGeometry x="662.25" y="2275" width="120.5" height="30" as="geometry" />
        </mxCell>
        <mxCell id="Xeb5spsY4oEFiOL5pdmb-16" value="crazyFeature" style="text;html=1;align=center;verticalAlign=middle;whiteSpace=wrap;rounded=0;fillColor=#ffe6cc;strokeColor=#b46504;" vertex="1" parent="1">
          <mxGeometry x="756.5" y="2945" width="80" height="30" as="geometry" />
        </mxCell>
        <mxCell id="Xeb5spsY4oEFiOL5pdmb-17" value="" style="endArrow=classic;html=1;rounded=0;exitX=0.5;exitY=0;exitDx=0;exitDy=0;entryX=0.5;entryY=1;entryDx=0;entryDy=0;strokeWidth=2;" edge="1" parent="1" source="Xeb5spsY4oEFiOL5pdmb-16">
          <mxGeometry width="50" height="50" relative="1" as="geometry">
            <mxPoint x="803" y="2975" as="sourcePoint" />
            <mxPoint x="710" y="2910" as="targetPoint" />
          </mxGeometry>
        </mxCell>
        <mxCell id="Xeb5spsY4oEFiOL5pdmb-18" value="" style="rounded=1;whiteSpace=wrap;html=1;strokeWidth=2;strokeColor=none;absoluteArcSize=1;arcSize=0;" vertex="1" parent="1">
          <mxGeometry x="130" y="2690" width="990" height="450" as="geometry" />
        </mxCell>
        <mxCell id="Xeb5spsY4oEFiOL5pdmb-19" value="&lt;font style=&quot;font-size: 16px;&quot;&gt;5ebf39d&lt;/font&gt;" style="ellipse;whiteSpace=wrap;html=1;aspect=fixed;strokeWidth=2;fillColor=#dae8fc;strokeColor=#6c8ebf;" vertex="1" parent="1">
          <mxGeometry x="515.25" y="2825" width="80" height="80" as="geometry" />
        </mxCell>
        <mxCell id="Xeb5spsY4oEFiOL5pdmb-20" value="&lt;font style=&quot;font-size: 16px;&quot;&gt;&quot;first commit&quot;&lt;/font&gt;" style="text;html=1;align=center;verticalAlign=middle;whiteSpace=wrap;rounded=0;" vertex="1" parent="1">
          <mxGeometry x="500" y="2795" width="110.5" height="30" as="geometry" />
        </mxCell>
        <mxCell id="Xeb5spsY4oEFiOL5pdmb-21" style="edgeStyle=orthogonalEdgeStyle;rounded=0;orthogonalLoop=1;jettySize=auto;html=1;endArrow=none;endFill=0;startArrow=classic;startFill=1;strokeWidth=2;" edge="1" parent="1">
          <mxGeometry relative="1" as="geometry">
            <mxPoint x="652" y="3015" as="targetPoint" />
            <mxPoint x="652" y="2975" as="sourcePoint" />
          </mxGeometry>
        </mxCell>
        <mxCell id="Xeb5spsY4oEFiOL5pdmb-22" value="&lt;font style=&quot;font-size: 16px;&quot;&gt;HEAD&lt;/font&gt;" style="text;html=1;align=center;verticalAlign=middle;whiteSpace=wrap;rounded=0;fillColor=#f8cecc;strokeColor=#b85450;" vertex="1" parent="1">
          <mxGeometry x="622.5" y="3005" width="60" height="30" as="geometry" />
        </mxCell>
        <mxCell id="Xeb5spsY4oEFiOL5pdmb-23" value="&lt;font style=&quot;font-size: 16px;&quot;&gt;master&lt;/font&gt;" style="text;html=1;align=center;verticalAlign=middle;whiteSpace=wrap;rounded=0;fillColor=#dae8fc;strokeColor=#6c8ebf;" vertex="1" parent="1">
          <mxGeometry x="622.5" y="2945" width="60" height="30" as="geometry" />
        </mxCell>
        <mxCell id="Xeb5spsY4oEFiOL5pdmb-24" value="" style="endArrow=classic;html=1;rounded=0;entryX=0.5;entryY=1;entryDx=0;entryDy=0;exitX=0.5;exitY=0;exitDx=0;exitDy=0;strokeWidth=2;" edge="1" parent="1" source="Xeb5spsY4oEFiOL5pdmb-23" target="Xeb5spsY4oEFiOL5pdmb-26">
          <mxGeometry width="50" height="50" relative="1" as="geometry">
            <mxPoint x="652.5" y="2975" as="sourcePoint" />
            <mxPoint x="712.5" y="2905" as="targetPoint" />
          </mxGeometry>
        </mxCell>
        <mxCell id="Xeb5spsY4oEFiOL5pdmb-25" style="edgeStyle=orthogonalEdgeStyle;rounded=0;orthogonalLoop=1;jettySize=auto;html=1;entryX=1;entryY=0.5;entryDx=0;entryDy=0;strokeWidth=2;" edge="1" parent="1" source="Xeb5spsY4oEFiOL5pdmb-26" target="Xeb5spsY4oEFiOL5pdmb-19">
          <mxGeometry relative="1" as="geometry" />
        </mxCell>
        <mxCell id="Xeb5spsY4oEFiOL5pdmb-26" value="&lt;font style=&quot;font-size: 16px;&quot;&gt;b9b394f&lt;/font&gt;" style="ellipse;whiteSpace=wrap;html=1;aspect=fixed;strokeWidth=2;fillColor=#dae8fc;strokeColor=#6c8ebf;" vertex="1" parent="1">
          <mxGeometry x="672.5" y="2825" width="80" height="80" as="geometry" />
        </mxCell>
        <mxCell id="Xeb5spsY4oEFiOL5pdmb-27" value="&lt;font style=&quot;font-size: 16px;&quot;&gt;&quot;second commit&quot;&lt;/font&gt;" style="text;html=1;align=center;verticalAlign=middle;whiteSpace=wrap;rounded=0;" vertex="1" parent="1">
          <mxGeometry x="652.25" y="2795" width="120.5" height="30" as="geometry" />
        </mxCell>
        <mxCell id="Xeb5spsY4oEFiOL5pdmb-28" value="&lt;font style=&quot;font-size: 16px;&quot;&gt;crazyFeature&lt;/font&gt;" style="text;html=1;align=center;verticalAlign=middle;whiteSpace=wrap;rounded=0;fillColor=#ffe6cc;strokeColor=#b46504;" vertex="1" parent="1">
          <mxGeometry x="720" y="2945" width="102.5" height="30" as="geometry" />
        </mxCell>
        <mxCell id="Xeb5spsY4oEFiOL5pdmb-29" value="" style="endArrow=classic;html=1;rounded=0;exitX=0.5;exitY=0;exitDx=0;exitDy=0;strokeWidth=2;entryX=0.5;entryY=1;entryDx=0;entryDy=0;" edge="1" parent="1" source="Xeb5spsY4oEFiOL5pdmb-28">
          <mxGeometry width="50" height="50" relative="1" as="geometry">
            <mxPoint x="657.5" y="2580" as="sourcePoint" />
            <mxPoint x="710" y="2905" as="targetPoint" />
          </mxGeometry>
        </mxCell>
        <mxCell id="Xeb5spsY4oEFiOL5pdmb-30" value="&lt;font style=&quot;font-size: 16px;&quot;&gt;&lt;b style=&quot;&quot;&gt;git branch crazyFeature&lt;/b&gt;&lt;/font&gt;" style="rounded=1;whiteSpace=wrap;html=1;fillColor=#f5f5f5;fontColor=#333333;strokeColor=#666666;" vertex="1" parent="1">
          <mxGeometry x="520" y="2690" width="265" height="30" as="geometry" />
        </mxCell>
      </root>
    </mxGraphModel>
  </diagram>
</mxfile>
